<?xml version="1.0" encoding="utf-8"?>
<!-- Generator: Adobe Illustrator 27.0.1, SVG Export Plug-In . SVG Version: 6.00 Build 0)  -->
<svg version="1.1" id="Camada_1" xmlns="http://www.w3.org/2000/svg" xmlns:xlink="http://www.w3.org/1999/xlink" x="0px" y="0px"
	 viewBox="0 0 300 300" style="enable-background:new 0 0 300 300;" xml:space="preserve">
<style type="text/css">
	.st0{fill:#FFFFFF;}
</style>
<path class="st0" d="M287.82,49.03c-10.18-24.84-44.74-35.08-69.33-34.28c-30.1,0.99-51.32,19.46-67.78,43.07
	c-18.4,26.41-36.75,52.6-56.5,78.05c-9.42,12.14-18.9,24.39-30.24,34.83c-5.57,5.13-11.8,9.6-18.48,13.19
	c-6.73,3.62-14.04,6.11-20.53,10.18c-13.13,8.23-21.66,23.99-17.02,40.16c5.77,20.1,25.9,10.41,35.84,13.9
	c20.15,7.07,7.77,15.57,33.66,25.73c16.9,6.63,21.07-10.61,29.49-7.39c11.97,4.57,8.45,12.58,21.02,17.09
	c14.08,5.04,22.07-4.78,34.09-12.18c11.53-7.1,22.03-16.46,30.24-27.23c9.26-12.14,15.13-25.43,20.69-39.55
	c5.6-14.23,12.14-27.1,21.98-38.89c9.78-11.72,20.84-22.31,30.5-34.13C283.47,109.51,299.58,77.76,287.82,49.03z"/>
<path d="M226.46,53.48c-15.09-2.71-30.58-2.63-44.17,4.1c-14.52,7.18-3.29,30,8.78,23.41c7.99-4.36,20.85-13.99,29.88-12.37
	C234.49,71.05,240.07,55.93,226.46,53.48z"/>
<path d="M270.26,79.37c-0.8-5.74-4.87-10.26-10.27-9.15c-5.99,1.23-5.04,5.32-4.24,11.07c0.97,7-1.95,15.92-2.21,22.98
	c-0.5,13.76,22.16,14.46,22.67,0.64C276.53,95.97,271.48,88.22,270.26,79.37z"/>
<path d="M218.2,106.35c-14.59-6.51-37.31-8.46-47.48,2.88c-6.83,7.61-1.98,15.14,2,18.79c4.62,4.23,10.47,1.55,14.79-2.34
	c4.98-4.5,13.43-7.53,19.93-5.51c7.57,2.35,11.24,10.06,9.99,15.85c-1.9,8.82,17.6,14.55,18.57,0.83
	C237.18,119.96,228.2,110.81,218.2,106.35z"/>
</svg>
